<?xml version="1.0" encoding="utf-8"?>
<!-- Generator: Adobe Illustrator 22.1.0, SVG Export Plug-In . SVG Version: 6.00 Build 0)  -->
<svg version="1.1"
	 id="Layer_1" inkscape:version="0.91 r13725" sodipodi:docname="logo.svg" xmlns:cc="http://creativecommons.org/ns#" xmlns:dc="http://purl.org/dc/elements/1.1/" xmlns:inkscape="http://www.inkscape.org/namespaces/inkscape" xmlns:rdf="http://www.w3.org/1999/02/22-rdf-syntax-ns#" xmlns:sodipodi="http://sodipodi.sourceforge.net/DTD/sodipodi-0.dtd" xmlns:svg="http://www.w3.org/2000/svg"
	 xmlns="http://www.w3.org/2000/svg" xmlns:xlink="http://www.w3.org/1999/xlink" x="0px" y="0px" viewBox="0 0 203 157"
	 style="enable-background:new 0 0 203 157;" xml:space="preserve">
<style type="text/css">
	.st0{fill:#FF5500;}
	.st1{fill:#FFFFFF;}
</style>
<g>
	<polygon class="st0" points="123.3,0 43.6,0 43.6,78.5 43.6,157 123.3,157 203,157 203,78.5 203,0 	"/>
	<path class="st1" d="M182.4,92.7c-0.9-3-3.3-7.2-5.6-9.9c-2.8-3.2-8.5-7-13.1-8.7l-2.1-0.8l2.9-1.2c6.7-2.8,11.9-7.7,14-13.2
		c1.3-3.3,1.6-10.3,0.6-14.1c-1-4-2.4-7-4.8-10c-2.4-3.1-4-4.4-7.5-6.5c-3.7-2.1-6.5-3-12.4-4.1c-7.6-1.4-17.2-1.7-55.3-1.7H64.5
		l0.1,13.2l0.1,13.2l4.4,0.1l4.4,0.1v27.8v27.8l-4.4,0.1l-4.4,0.1l-0.1,13.2l-0.1,13.2l39.7-0.2c34.4-0.2,40.5-0.3,45.3-0.9
		c6.4-0.8,11.9-2,15.5-3.4c7.9-2.9,14.5-9.7,17.2-17.5C183.3,105.7,183.5,96.4,182.4,92.7z M137.2,102.7c-2.3,3.2-6.2,4.1-16.8,4.1
		h-6.8V96.5l0,0V86.2h6.5c10.5,0,15,1.2,17.2,4.4C139.1,93.6,139.1,100,137.2,102.7z M137.2,61.5c-2.3,3.2-6.2,4.1-16.8,4.1h-6.8
		V55.3l0,0V45h6.5c10.5,0,15,1.2,17.2,4.4C139.1,52.4,139.1,58.8,137.2,61.5z"/>
</g>
<g>
	<path d="M36.5,125.3v-6.1h-5.3h-4.9c-1.9,0-3.6,0.4-4.9,1c-0.6,0.3-1.2,0.8-1.7,1.3c-0.4-0.5-1-0.9-1.5-1.2c-1.3-0.7-3-1.1-4.9-1.1
		h-2.5c-2.7,0-4.8,0.7-6.3,2s-2.4,3.4-2.4,6.2v8.1h34.4v-6.1H23v-1c0-1.1,0.2-1.9,0.8-2.4c0.3-0.4,1.3-0.7,2.6-0.7h4.9
		C31.2,125.3,36.5,125.3,36.5,125.3z M17,129.4H8.1v-2c0-0.6,0.1-1.3,0.5-1.7c0.4-0.3,1.3-0.5,2.4-0.5h3c1.2,0,2,0.2,2.3,0.6
		c0.4,0.5,0.6,1.3,0.6,2.4v1.2H17z"/>
	<path d="M36.5,25.2v-6.1h-5.3h-4.9c-1.9,0-3.7,0.4-4.9,1c-0.6,0.3-1.2,0.8-1.7,1.3c-0.4-0.5-1-0.9-1.5-1.2c-1.3-0.7-3-1.1-4.9-1.1
		h-2.5c-2.7,0-4.8,0.7-6.3,2S2,24.5,2,27.3v8.1h34.5v-6.1H23v-1c0-1.1,0.2-1.9,0.8-2.4c0.3-0.4,1.3-0.7,2.6-0.7h4.9H36.5z
		 M16.9,29.3H8v-2c0-0.6,0.1-1.3,0.5-1.7c0.4-0.3,1.3-0.5,2.4-0.5h3c1.2,0,2,0.2,2.3,0.6c0.4,0.5,0.6,1.3,0.6,2.4v1.2H16.9z"/>
	<path d="M22.9,137.7c-1.1,0.3-2,0.8-2.7,1.3c-0.8,0.5-1.4,1.2-1.8,1.8c0,0.1-0.1,0.1-0.1,0.2l-0.1-0.1c-0.5-0.5-1-1-1.7-1.4
		c-0.7-0.4-1.5-0.7-2.3-1c-0.9-0.2-1.9-0.3-3.1-0.3c-1.7,0-3.2,0.3-4.4,0.8s-2.1,1.2-2.8,2.1c-0.7,0.8-1.2,1.8-1.5,2.8
		c-0.2,1-0.4,1.9-0.4,2.8v7.7h34.5v-8.5c0-1-0.2-1.9-0.5-2.9c-0.4-1-0.9-2-1.7-2.8s-1.8-1.5-3.1-2c-1.2-0.5-2.8-0.8-4.6-0.8
		C25.2,137.2,24,137.4,22.9,137.7z M13.8,143.8c0.5,0.2,1,0.5,1.3,0.8s0.5,0.7,0.7,1.1c0.2,0.4,0.2,0.8,0.2,1.3v2.1H7.5v-2
		c0-0.5,0.1-0.9,0.2-1.4c0.1-0.4,0.3-0.7,0.6-1s0.8-0.6,1.3-0.8s1.3-0.3,2.1-0.3C12.5,143.5,13.2,143.6,13.8,143.8z M21.3,149v-2.3
		c0-0.5,0.1-0.9,0.3-1.4c0.2-0.5,0.4-0.9,0.8-1.2c0.4-0.4,0.9-0.7,1.6-0.9c0.7-0.3,1.5-0.4,2.5-0.4c0.9,0,1.7,0.1,2.3,0.3
		c0.6,0.2,1.1,0.5,1.4,0.8s0.6,0.7,0.8,1.2c0.2,0.5,0.3,1,0.3,1.5v2.4L21.3,149L21.3,149z"/>
	<polygon points="30.9,109.8 21.4,109.8 21.4,102 16,102 16,109.8 7.7,109.8 7.7,101.5 2.1,101.5 2.1,115.2 36.6,115.2 36.6,101.1 
		30.9,101.1 	"/>
	<rect x="2.1" y="93.8" width="34.5" height="5.5"/>
	<polygon points="2.1,91.7 7.6,91.7 7.6,86.4 36.6,86.4 36.6,80.9 7.6,80.9 7.6,75.6 2.1,75.6 	"/>
	<path d="M22.9,56.9c-1.1,0.3-2,0.8-2.7,1.3c-0.8,0.5-1.4,1.2-1.8,1.8c0,0.1-0.1,0.1-0.1,0.2l-0.1-0.1c-0.5-0.5-1-1-1.7-1.4
		c-0.7-0.4-1.5-0.7-2.3-1c-0.9-0.2-1.9-0.3-3.1-0.3c-1.7,0-3.2,0.3-4.4,0.8s-2.1,1.2-2.8,2.1c-0.7,0.8-1.2,1.8-1.5,2.8
		C2.2,64.1,2,65,2,65.9v7.7h34.5V65c0-1-0.2-1.9-0.5-2.9c-0.4-1-0.9-2-1.7-2.8s-1.8-1.5-3.1-2c-1.2-0.5-2.8-0.8-4.6-0.8
		C25.2,56.4,24,56.6,22.9,56.9z M13.8,63c0.5,0.2,1,0.5,1.3,0.8s0.5,0.7,0.7,1.1s0.2,0.8,0.2,1.3v2.1H7.5v-2c0-0.5,0.1-0.9,0.2-1.4
		c0.1-0.4,0.3-0.7,0.6-1c0.3-0.3,0.8-0.6,1.3-0.8s1.3-0.3,2.1-0.3C12.5,62.7,13.2,62.8,13.8,63z M21.3,68.2v-2.3
		c0-0.5,0.1-0.9,0.3-1.4c0.2-0.5,0.4-0.9,0.8-1.2c0.4-0.4,0.9-0.7,1.6-0.9c0.7-0.3,1.5-0.4,2.5-0.4c0.9,0,1.7,0.1,2.3,0.3
		c0.6,0.2,1.1,0.5,1.4,0.8c0.4,0.3,0.6,0.7,0.8,1.2c0.2,0.5,0.3,1,0.3,1.5v2.4C31.3,68.2,21.3,68.2,21.3,68.2z"/>
	<path d="M2.1,43v6.3l34.5,7.4v-5.6L29,49.5V43l7.6-1.6v-5.7L2.1,43z M23.7,43.9v4.7l-12.1-2.4L23.7,43.9z"/>
	<polygon points="2.1,18.5 7.6,18.5 7.6,13.1 36.6,13.1 36.6,7.6 7.6,7.6 7.6,2.3 2.1,2.3 	"/>
</g>
</svg>
